<svg id="visual" viewBox="0 0 960 540" width="960" height="540" xmlns="http://www.w3.org/2000/svg" xmlns:xlink="http://www.w3.org/1999/xlink" version="1.1"><path d="M0 393L20 393.5C40 394 80 395 120 398.3C160 401.7 200 407.3 240 408.2C280 409 320 405 360 409.8C400 414.7 440 428.3 480 433.3C520 438.3 560 434.7 600 428.8C640 423 680 415 720 411.8C760 408.7 800 410.3 840 409.7C880 409 920 406 940 404.5L960 403L960 541L940 541C920 541 880 541 840 541C800 541 760 541 720 541C680 541 640 541 600 541C560 541 520 541 480 541C440 541 400 541 360 541C320 541 280 541 240 541C200 541 160 541 120 541C80 541 40 541 20 541L0 541Z" fill="#010101"></path><path d="M0 416L20 416.2C40 416.3 80 416.7 120 426C160 435.3 200 453.7 240 461.3C280 469 320 466 360 459.3C400 452.7 440 442.3 480 442.3C520 442.3 560 452.7 600 459.8C640 467 680 471 720 475.2C760 479.3 800 483.7 840 476.3C880 469 920 450 940 440.5L960 431L960 541L940 541C920 541 880 541 840 541C800 541 760 541 720 541C680 541 640 541 600 541C560 541 520 541 480 541C440 541 400 541 360 541C320 541 280 541 240 541C200 541 160 541 120 541C80 541 40 541 20 541L0 541Z" fill="#1e0f27"></path><path d="M0 480L20 479.3C40 478.7 80 477.3 120 480.2C160 483 200 490 240 490.3C280 490.7 320 484.3 360 481C400 477.7 440 477.3 480 474.7C520 472 560 467 600 465.8C640 464.7 680 467.3 720 468.2C760 469 800 468 840 466.8C880 465.7 920 464.3 940 463.7L960 463L960 541L940 541C920 541 880 541 840 541C800 541 760 541 720 541C680 541 640 541 600 541C560 541 520 541 480 541C440 541 400 541 360 541C320 541 280 541 240 541C200 541 160 541 120 541C80 541 40 541 20 541L0 541Z" fill="#321448"></path><path d="M0 500L20 494.3C40 488.7 80 477.3 120 475.3C160 473.3 200 480.7 240 478.8C280 477 320 466 360 467.8C400 469.7 440 484.3 480 492C520 499.7 560 500.3 600 497.3C640 494.3 680 487.7 720 486.5C760 485.3 800 489.7 840 493.3C880 497 920 500 940 501.5L960 503L960 541L940 541C920 541 880 541 840 541C800 541 760 541 720 541C680 541 640 541 600 541C560 541 520 541 480 541C440 541 400 541 360 541C320 541 280 541 240 541C200 541 160 541 120 541C80 541 40 541 20 541L0 541Z" fill="#48176c"></path><path d="M0 490L20 490.8C40 491.7 80 493.3 120 495.8C160 498.3 200 501.7 240 504.3C280 507 320 509 360 508.2C400 507.3 440 503.7 480 504.3C520 505 560 510 600 511.8C640 513.7 680 512.3 720 506.8C760 501.3 800 491.7 840 490C880 488.3 920 494.7 940 497.8L960 501L960 541L940 541C920 541 880 541 840 541C800 541 760 541 720 541C680 541 640 541 600 541C560 541 520 541 480 541C440 541 400 541 360 541C320 541 280 541 240 541C200 541 160 541 120 541C80 541 40 541 20 541L0 541Z" fill="#5e1893"></path><path d="M0 512L20 513.8C40 515.7 80 519.3 120 519.7C160 520 200 517 240 514.8C280 512.7 320 511.3 360 510.7C400 510 440 510 480 514C520 518 560 526 600 524.8C640 523.7 680 513.3 720 510.8C760 508.3 800 513.7 840 517.8C880 522 920 525 940 526.5L960 528L960 541L940 541C920 541 880 541 840 541C800 541 760 541 720 541C680 541 640 541 600 541C560 541 520 541 480 541C440 541 400 541 360 541C320 541 280 541 240 541C200 541 160 541 120 541C80 541 40 541 20 541L0 541Z" fill="#7415bb"></path></svg>